<svg width="200" height="104" viewBox="0 0 200 104" fill="none" xmlns="http://www.w3.org/2000/svg">
<g id="Group 407">
<path id="Vector" d="M0.841443 94.7285H7.41166V68.53L17.5837 91.3695C18.7832 94.1342 20.4258 95.1112 23.6485 95.1112C26.8712 95.1112 28.4514 94.1342 29.6509 91.3695L39.8229 68.53V94.7285H46.3932V68.5736C46.3932 66.022 45.3824 64.7866 43.2968 64.1504C38.3051 62.5775 34.956 63.9388 33.4398 67.3414L23.4582 89.8822L13.7932 67.3398C12.3393 63.9388 8.92787 62.5775 3.93623 64.1488C1.85065 64.7866 0.839844 66.0204 0.839844 68.572L0.841443 94.7285ZM51.8582 73.4021H58.4268V87.8361C58.3661 88.6193 58.6763 90.4603 62.2749 90.5184C64.111 90.5475 76.4486 90.5184 76.5637 90.5184V73.3311H83.1483C83.1787 73.3311 83.1419 96.7697 83.1419 96.8666C83.1771 102.648 76.0391 103.903 72.7476 104H52.0005V99.536C52.0357 99.536 72.7332 99.5409 72.7844 99.5344C77.0147 99.0839 76.5141 96.9619 76.5125 96.2481V94.5073H62.5484C56.0518 94.4475 51.9126 91.5843 51.8598 88.2899C51.8566 87.9879 52.0021 73.5475 51.8582 73.4021Z" fill="#00618A"/>
<path id="Vector_2" d="M88.2148 94.7285H107.107C109.319 94.7285 111.468 94.2618 113.173 93.4544C116.015 92.1366 117.405 90.3505 117.405 88.0089V83.161C117.405 81.2473 115.826 79.4596 112.73 78.2711C111.087 77.6316 109.064 77.2941 107.105 77.2941H99.1434C96.49 77.2941 95.2265 76.4866 94.9114 74.7005C94.849 74.4874 94.849 74.3178 94.849 74.1046V71.0848C94.849 70.9152 94.849 70.744 94.9114 70.5325C95.2265 69.1711 95.9222 68.7884 98.2605 68.5752L98.8922 68.5332H117.658V64.1116H99.2089C96.5556 64.1116 95.1657 64.2812 93.9022 64.6639C89.9853 65.8977 88.2772 67.8533 88.2772 71.2559V75.1252C88.2772 78.1031 91.6279 80.6547 97.2497 81.2506C97.883 81.2909 98.5132 81.3362 99.145 81.3362H105.969C106.222 81.3362 106.475 81.3362 106.665 81.3765C108.751 81.5461 109.634 81.9304 110.267 82.6943C110.429 82.8456 110.558 83.0299 110.645 83.235C110.732 83.4401 110.775 83.6614 110.771 83.8845V87.7554C110.771 88.2221 110.456 88.818 109.824 89.3283C109.256 89.8386 108.308 90.1793 107.044 90.2649L106.349 90.3069H88.2148V94.7285ZM158.397 87.0319C158.397 91.5811 161.746 94.1326 168.505 94.6445C169.137 94.6865 169.768 94.7285 170.4 94.7285H187.523V90.3069H170.275C166.421 90.3069 164.969 89.3283 164.969 86.9883V64.1084H158.398L158.397 87.0319ZM121.599 87.2612V71.4917C121.599 67.4868 124.385 65.0563 129.893 64.2893C130.48 64.2043 131.072 64.1616 131.665 64.1617H144.138C144.772 64.1617 145.341 64.2037 145.973 64.2893C151.481 65.0563 154.269 67.4852 154.269 71.4917V87.2612C154.269 90.5136 153.085 92.2513 150.358 93.3849L156.833 99.2841H149.202L143.966 94.5105L138.694 94.848H131.665C130.359 94.8396 129.061 94.6533 127.804 94.2941C123.625 93.1443 121.599 90.927 121.599 87.2612ZM128.69 86.8785C128.69 87.0917 128.753 87.3064 128.816 87.5616C129.196 89.3945 130.907 90.4167 133.501 90.4167H139.47L133.987 85.4186H141.618L146.398 89.7788C147.281 89.3024 147.86 88.579 148.063 87.6472C148.126 87.434 148.126 87.2208 148.126 87.0077V71.8793C148.126 71.7097 148.126 71.495 148.063 71.2818C147.683 69.5765 145.973 68.5978 143.441 68.5978H133.499C130.589 68.5978 128.689 69.8768 128.689 71.8793L128.69 86.8785Z" fill="#E48E00"/>
<path id="Vector_3" d="M193.302 56.7682C189.264 56.6568 186.179 57.0363 183.54 58.1587C182.79 58.4784 181.595 58.4865 181.473 59.4344C181.884 59.8721 181.948 60.5229 182.276 61.059C182.906 62.0877 183.97 63.4668 184.918 64.1887C185.953 64.9784 187.022 65.8246 188.135 66.5093C190.11 67.7269 192.317 68.4213 194.222 69.639C195.343 70.3592 196.456 71.2636 197.552 72.0759C198.094 72.4747 198.455 73.0997 199.161 73.35V73.2354C198.791 72.7606 198.695 72.1081 198.356 71.6108L196.862 70.1024C195.402 68.1452 193.55 66.4286 191.578 65.001C190.008 63.8625 186.492 62.3235 185.836 60.4776L185.721 60.363C186.834 60.2354 188.14 59.8285 189.166 59.5507C190.894 59.0824 192.437 59.2035 194.22 58.7384L196.632 58.0408V57.5789C195.732 56.6455 195.087 55.4085 194.105 54.5639C191.535 52.3531 188.726 50.1439 185.836 48.2997C184.234 47.2791 182.252 46.6153 180.552 45.7498C179.983 45.4575 178.978 45.3073 178.599 44.8212C177.705 43.673 177.221 42.218 176.531 40.8792C175.059 37.9871 173.68 35.0475 172.397 32.0651C171.527 30.0545 170.957 28.0714 169.871 26.2676C164.656 17.6101 159.042 12.3843 150.346 7.24893C148.496 6.15564 146.268 5.72608 143.915 5.16248L140.125 4.92993C139.355 4.60534 138.553 3.65255 137.828 3.19069C134.946 1.35293 127.557 -2.64395 125.423 2.61255C124.077 5.92955 127.439 9.16581 128.64 10.8469C129.483 12.0258 130.564 13.3468 131.167 14.6726C131.563 15.5447 131.63 16.4183 131.971 17.3404C132.804 19.611 133.532 22.0834 134.612 24.1812C135.157 25.2438 135.76 26.3629 136.449 27.3124C136.872 27.8938 137.598 28.1522 137.711 29.0517C137.003 30.0529 136.961 31.6097 136.563 32.8774C134.768 38.5925 135.445 45.6965 138.057 49.9259C138.858 51.2259 140.745 54.01 143.339 52.9409C145.609 52.0075 145.104 49.1152 145.753 46.562C145.9 45.9855 145.809 45.5592 146.097 45.1716V45.2879L148.165 49.4624C149.695 51.951 152.41 54.5493 154.711 56.3047C155.904 57.2139 156.845 58.7885 158.386 59.3198V59.2019H158.273C157.972 58.7319 157.507 58.5382 157.123 58.1587C156.224 57.2688 155.224 56.1642 154.482 55.1436C152.389 52.2756 150.54 49.1346 148.854 45.866C148.05 44.306 147.351 42.5846 146.673 40.9955C146.41 40.3834 146.413 39.4565 145.87 39.1416C145.124 40.3043 144.032 41.2458 143.456 42.6201C142.538 44.8163 142.42 47.4955 142.079 50.2731L141.849 50.3877C140.248 49.9986 139.687 48.3352 139.092 46.9093C137.588 43.3032 137.308 37.4944 138.633 33.3425C138.975 32.267 140.521 28.8837 139.894 27.8906C139.595 26.9006 138.609 26.329 138.058 25.57C137.337 24.5543 136.721 23.466 136.221 22.3224C134.989 19.5109 134.415 16.3537 133.121 13.5099C132.501 12.1502 131.455 10.7759 130.594 9.56792C129.642 8.22756 128.576 7.24247 127.837 5.62434C127.574 5.04944 127.218 4.12732 127.606 3.53627C127.73 3.13739 127.907 2.97106 128.297 2.84025C128.963 2.32187 130.818 3.01305 131.512 3.30373C133.355 4.07727 134.892 4.81204 136.453 5.85527C137.201 6.3575 137.958 7.32644 138.864 7.59452H139.898C141.515 7.96917 143.327 7.70918 144.837 8.17265C147.507 8.99302 149.9 10.2672 152.072 11.6528C158.692 15.8741 164.103 21.8815 167.807 29.0485C168.402 30.2031 168.661 31.3029 169.184 32.527C170.243 34.9945 171.576 37.5348 172.629 39.949C173.68 42.3568 174.705 44.7873 176.191 46.7914C176.971 47.8443 179.988 48.4095 181.358 48.9941C182.319 49.4043 183.893 49.8322 184.803 50.3845C186.542 51.4439 188.227 52.7051 189.857 53.8646C190.671 54.4492 193.178 55.7202 193.302 56.7682ZM141.964 12.5862C141.268 12.5747 140.573 12.6528 139.896 12.8187V12.9334H140.011C140.413 13.7683 141.121 14.3044 141.619 15.0214L142.769 17.4567L142.882 17.3421C143.594 16.8366 143.918 16.0275 143.915 14.7905C143.629 14.4869 143.587 14.1074 143.341 13.7473C143.015 13.2628 142.378 12.9915 141.964 12.5862Z" fill="#00618A"/>
</g>
</svg>
